<svg width="91" height="103" viewBox="0 0 91 103" fill="none" xmlns="http://www.w3.org/2000/svg">
<path d="M49.5684 0.177002C38.1993 9.34224 30.9238 23.3811 30.9238 39.1213C30.9238 66.7356 53.3096 89.1213 80.9238 89.1213C81.7131 89.1213 82.498 89.1009 83.2783 89.0647C74.7019 95.9786 63.7977 100.121 51.9238 100.121C24.3096 100.121 1.92383 77.7356 1.92383 50.1213C1.92383 23.2967 23.0478 1.40694 49.5684 0.177002Z" fill="#FEF8EE"/>
<path d="M35.0769 99.1837C28.5512 96.4111 22.4753 95.2071 15.9051 88.9685C9.79221 82.4294 9.55329 80.8496 4.75997 72.0527C0.768374 64.1305 0.121093 55.1336 0.0685048 50.1213C0.0489675 49.3731 0.0323082 48.7078 0.00457478 48.1341C-0.0851762 43.6312 0.972674 43.2507 2.15048 37.0973C3.5693 30.9572 5.39067 27.429 8.55565 22.9593C11.2606 18.0248 23.8228 6.86255 29.5022 4.38157C34.7881 1.182 41.915 0.281316 46.0003 0.0697143C47.2926 -0.021027 48.2988 -0.0104951 49.0799 0.0300768C49.4102 0.0477634 49.5655 0.11659 49.569 0.190509C49.569 0.190557 49.569 0.190605 49.569 0.190653C49.5731 0.283121 49.3429 0.383447 48.9255 0.419735C46.9121 0.594272 43.8821 1.0538 40.5111 2.2007C34.371 4.57546 33.2838 3.94706 25.7452 8.69928C18.573 13.9318 15.0682 18.0768 9.49451 26.7155C4.91972 35.1988 5.09968 38.3147 3.97932 50.1213C3.93589 51.0138 3.90483 51.9473 3.89477 52.9476C4.75609 67.4261 7.39314 68.9823 15.671 80.0947C24.4403 91.453 42.182 98.3857 50.9149 97.8257C51.2461 97.8293 51.5824 97.8295 51.9238 97.826C60.4142 97.8325 71.6618 94.9326 81.0836 87.8166C81.3298 87.6335 81.5753 87.4465 81.8199 87.2556L83.3859 91.3859C82.5798 91.4114 81.7586 91.4241 80.9238 91.4176C68.2463 91.5903 53.0344 86.0979 43.8386 75.9679C34.5277 66.8791 28.8937 49.6127 29.8206 39.1213C29.8747 37.5017 30.0021 36.0461 30.1561 34.7946C31.661 25.5243 32.4716 23.3115 36.2177 15.1346C38.4974 10.4765 43.0422 4.74391 47.9127 1.21707C50.3707 -0.537822 50.0094 0.142145 47.8674 2.21704C44.7747 5.29337 42.4071 7.99766 41.4117 10.0361C39.5117 14.1474 38.8045 15.789 36.1572 20.6737C33.6497 25.6887 34.2298 28.5912 33.5723 31.681C33.2223 33.722 32.6967 34.388 32.5562 39.1213C32.5454 41.6711 32.6535 45.4729 34.2044 51.0106C39.144 66.7486 46.9756 72.6215 51.5314 76.3889C56.1393 80.2954 67.7788 86.6717 77.9806 86.7294C78.8862 86.7664 79.8626 86.7856 80.9238 86.7733C81.639 86.7648 82.3888 86.7395 83.1686 86.6969L90.3835 86.2968L84.766 90.9101C76.2953 98.5879 60.0303 103.041 51.9238 102.734C51.5521 102.744 51.1982 102.752 50.8632 102.757C41.8257 102.558 41.82 101.606 35.0769 99.1837Z" fill="#FEF8EE"/>
</svg>
